<svg class='ring' id="outterRing" viewBox="0 0 100 99.8942" width="100mm" height="99.8942mm" xmlns:sodipodi="http://sodipodi.sourceforge.net/DTD/sodipodi-0.dtd" sodipodi:docname="3rings.svg" xmlns:inkscape="http://www.inkscape.org/namespaces/inkscape" inkscape:version="0.92.2 (5c3e80d, 2017-08-06)" version="1.1">
  <defs id="defs4516">
    <inkscape:perspective id="perspective5100" inkscape:persp3d-origin="105.00001 : 98.999996 : 1" inkscape:vp_z="210.00001 : 148.49999 : 1" inkscape:vp_y="0 : 999.99996 : 0" inkscape:vp_x="0 : 148.49999 : 1" sodipodi:type="inkscape:persp3d" />
  </defs>
  <sodipodi:namedview id="base" inkscape:window-maximized="1" inkscape:window-y="303" inkscape:window-x="1912" inkscape:window-height="1021" inkscape:window-width="1920" inkscape:guide-bbox="true" showguides="true" fit-margin-bottom="0" fit-margin-right="0" fit-margin-left="0" fit-margin-top="0" inkscape:measure-end="201.794,-35.0947" inkscape:measure-start="-105.911,200.541" showgrid="false" inkscape:current-layer="layer1" inkscape:document-units="mm" inkscape:cy="189.48444" inkscape:cx="188.97657" inkscape:zoom="1.5956844" inkscape:pageshadow="2" inkscape:pageopacity="0.0" borderopacity="1.0" bordercolor="#666666" pagecolor="#ffffff" />
  <metadata id="metadata4519">
    <rdf:RDF xmlns:rdf="http://www.w3.org/1999/02/22-rdf-syntax-ns#">
      <cc:Work xmlns:cc="http://creativecommons.org/ns#" rdf:about="">
        <dc:format xmlns:dc="http://purl.org/dc/elements/1.1/">image/svg+xml</dc:format>
        <dc:type xmlns:dc="http://purl.org/dc/elements/1.1/" rdf:resource="http://purl.org/dc/dcmitype/StillImage" />
        <dc:title xmlns:dc="http://purl.org/dc/elements/1.1/" />
      </cc:Work>
    </rdf:RDF>
  </metadata>
  <g id="layer1" transform="translate(294.264 61.6109)" inkscape:groupmode="layer" inkscape:label="Layer 1">
    <path class='ring' id="outterRing" style="opacity: 1; fill: #81e01d; fill-opacity: 0.929648; stroke-width: 0.266304;" d="m -241.264 -61.6109 v 7.54424 a 42.5 42.5 0 0 1 39.4999 42.3499 a 42.5 42.5 0 0 1 -42.4997 42.4997 a 42.5 42.5 0 0 1 -42.5003 -42.4997 a 42.5 42.5 0 0 1 39.5004 -42.3938 v -7.45639 a 50 50 0 0 0 -47.0002 49.8502 a 50 50 0 0 0 50 50 a 50 50 0 0 0 50 -50 a 50 50 0 0 0 -47.0002 -49.8941 Z" inkscape:connector-curvature="0" />
    <path class='ring' id="middleRing" style="opacity: 1; fill: #81e11d; fill-opacity: 0.929412; stroke-width: 0.271845;" d="m -241.266 -51.5931 v 7.52926 a 32.5 32.5 0 0 1 29.4995 32.35 a 32.5 32.5 0 0 1 -32.4998 32.4998 a 32.5 32.5 0 0 1 -32.4998 -32.4998 a 32.5 32.5 0 0 1 29.5 -32.3329 v -7.51685 a 40 40 0 0 0 -37.0003 39.8498 a 40 40 0 0 0 40.0001 40.0001 a 40 40 0 0 0 40.0001 -40.0001 a 40 40 0 0 0 -36.9998 -39.8792 Z" inkscape:connector-curvature="0" />
    <path class='ring' id="innerRing" style="opacity: 1; fill: #81e11d; fill-opacity: 0.929412; stroke-width: 0.265823;" d="m -247.263 -41.5669 a 30 30 0 0 0 -27.0004 29.8499 a 30 30 0 0 0 30.0002 30.0002 a 30 30 0 0 0 30.0002 -30.0002 a 30 30 0 0 0 -26.9999 -29.8188 v 6.53552 a 23.5 23.5 0 0 1 20.4995 23.2833 a 23.5 23.5 0 0 1 -23.4999 23.4999 a 23.5 23.5 0 0 1 -23.4999 -23.4999 a 23.5 23.5 0 0 1 20.5 -23.2787 Z" inkscape:connector-curvature="0" />
  </g>
</svg>